<?xml version="1.0" encoding="utf-8"?>
<!-- Generator: Adobe Illustrator 21.1.0, SVG Export Plug-In . SVG Version: 6.00 Build 0)  -->
<svg version="1.1" id="Layer_1" xmlns="http://www.w3.org/2000/svg" xmlns:xlink="http://www.w3.org/1999/xlink" x="0px" y="0px"
	 viewBox="0 0 144 144" enable-background="new 0 0 144 144" xml:space="preserve">
<g id="Puzzle_Piece">
	<g>
		<path fill="#481C0E" d="M61.3,133.3c-9.8,0-17.7-6.6-17.7-14.7c0-4.2,2.2-8.1,5.9-10.9c-0.7-0.1-1.8-0.1-3.2-0.1h-1.5v0H29.9
			c-7.6,0-15.4-5.4-15.4-14.4V41.4c0-7.3,7.6-14.4,15.4-14.4h62.7c7.9,0,15.4,7,15.4,14.4v10.8c0,0.9,0,1.9,0,2.7
			c2.7-2.7,6.4-4.2,10.2-4.2c8,0,14.4,6.5,14.4,14.4s-6.5,14.4-14.4,14.4c-3.8,0-7.4-1.5-10.1-4.2c-0.1,0.6-0.1,1.5-0.1,2.7v15.1
			c0,7.3-7.6,14.4-15.4,14.4H77.5l-1.5,0c-1,0-2.1,0-3,0c3.8,2.8,6,6.7,6,11C79,126.7,71.1,133.3,61.3,133.3z"/>
		<path fill="#481C0E" d="M92.6,28.4c7.2,0,13.9,6.5,13.9,12.9c0,1.7,0,5.7,0,10.8c0,3.2,0,5.2,0.8,5.2c0.3,0,0.6-0.2,1-0.6
			c2.4-2.8,5.9-4.6,9.8-4.6c7.1,0,12.9,5.8,12.9,12.9c0,7.1-5.8,12.9-12.9,12.9c-3.9,0-7.4-1.7-9.8-4.5c-0.3-0.3-0.6-0.4-0.8-0.4
			c-1.1,0-1.1,3.1-1.1,4.9c0,7.1,0,12.9,0,15.1c0,6.5-7,12.9-13.9,12.9c-2.2,0-8.7,0-16.7,0v0c-4.3,0-6.7,0-5.7,1.6
			c4.3,2.4,7.2,6.4,7.2,11c0,7.3-7.3,13.2-16.2,13.2c-9,0-16.2-5.9-16.2-13.2c0-4.3,2.6-8.2,6.6-10.6c1.3-2-3.1-2-5.4-2v0
			c-7.8,0-14.2,0-16.3,0c-7,0-13.9-4.9-13.9-12.9s0-51.8,0-51.8c0-6.5,7-12.9,13.9-12.9S85.5,28.4,92.6,28.4 M92.6,25.4H29.9
			c-8.7,0-16.9,7.7-16.9,15.9v51.8c0,10,8.6,15.9,16.9,15.9h13.3l2.5,0c-2.4,2.7-3.7,6.1-3.7,9.5c0,8.9,8.6,16.2,19.2,16.2
			c10.6,0,19.2-7.3,19.2-16.2c0-3.5-1.3-6.8-3.7-9.5H79v0h13.7c8.7,0,16.9-7.7,16.9-15.9V78.4c2.6,1.7,5.6,2.6,8.7,2.6
			c8.8,0,15.9-7.2,15.9-15.9s-7.2-15.9-15.9-15.9c-3.1,0-6.2,0.9-8.7,2.6V41.4C109.6,33.2,101.4,25.4,92.6,25.4L92.6,25.4z"/>
	</g>
	<g>
		<path fill="#481C0E" d="M63.4,137.5c-9.8,0-17.7-6.6-17.7-14.7c0-4.2,2.2-8.1,5.9-10.9c-0.7-0.1-1.8-0.1-3.2-0.1h-1.5v0H32
			c-7.6,0-15.4-5.4-15.4-14.4V45.6c0-7.3,7.6-14.4,15.4-14.4h62.7c7.9,0,15.4,7,15.4,14.4v10.8c0,0.9,0,1.9,0,2.7
			c2.7-2.7,6.4-4.2,10.2-4.2c8,0,14.4,6.5,14.4,14.4c0,8-6.5,14.4-14.4,14.4c-3.8,0-7.4-1.5-10.1-4.2c-0.1,0.6-0.1,1.5-0.1,2.7v15.1
			c0,7.3-7.6,14.4-15.4,14.4H79.6l-1.5,0c-1,0-2.1,0-3,0c3.8,2.8,6,6.7,6,11C81.1,130.9,73.2,137.5,63.4,137.5z"/>
		<path fill="#481C0E" d="M94.7,32.6c7.2,0,13.9,6.5,13.9,12.9c0,1.7,0,5.7,0,10.8c0,3.2,0,5.2,0.8,5.2c0.3,0,0.6-0.2,1-0.6
			c2.4-2.8,5.9-4.6,9.8-4.6c7.1,0,12.9,5.8,12.9,12.9c0,7.1-5.8,12.9-12.9,12.9c-3.9,0-7.4-1.7-9.8-4.5c-0.3-0.3-0.6-0.4-0.8-0.4
			c-1.1,0-1.1,3.1-1.1,4.9c0,7.1,0,12.9,0,15.1c0,6.5-7,12.9-13.9,12.9c-2.2,0-8.7,0-16.7,0v0c-4.3,0-6.7,0-5.7,1.6
			c4.3,2.4,7.2,6.4,7.2,11c0,7.3-7.3,13.2-16.2,13.2c-9,0-16.2-5.9-16.2-13.2c0-4.3,2.6-8.2,6.6-10.6c1.3-2-3.1-2-5.4-2v0
			c-7.8,0-14.2,0-16.3,0c-7,0-13.9-4.9-13.9-12.9s0-51.8,0-51.8c0-6.5,7-12.9,13.9-12.9C39,32.6,87.6,32.6,94.7,32.6 M94.7,29.6H32
			c-8.7,0-16.9,7.7-16.9,15.9v51.8c0,10,8.6,15.9,16.9,15.9h13.3l2.5,0c-2.4,2.7-3.7,6.1-3.7,9.5c0,8.9,8.6,16.2,19.2,16.2
			c10.6,0,19.2-7.3,19.2-16.2c0-3.5-1.3-6.8-3.7-9.5h2.2v0h13.7c8.7,0,16.9-7.7,16.9-15.9V82.6c2.6,1.7,5.6,2.6,8.7,2.6
			c8.8,0,15.9-7.2,15.9-15.9c0-8.8-7.2-15.9-15.9-15.9c-3.1,0-6.2,0.9-8.7,2.6V45.6C111.7,37.4,103.5,29.6,94.7,29.6L94.7,29.6z"/>
	</g>
	<g>
		<path fill="#FEE05B" d="M16,41.4c0-6.5,7-12.9,13.9-12.9s55.6,0,62.7,0s13.9,6.5,13.9,12.9s0,45.3,0,51.8c0,6.5-7,12.9-13.9,12.9
			s-55.8,0-62.7,0S16,101.2,16,93.1S16,41.4,16,41.4z"/>
		<g>
			<circle fill="#FEE05B" cx="118.3" cy="65.1" r="12.9"/>
			<path fill="#FEE05B" d="M106.6,52.1c0,4.3,0,6.5,2.2,4.3v17.3c-2.2-2.2-2.2,2.2-2.2,4.3h-2.2V52.1H106.6z"/>
		</g>
		<g>
			<ellipse fill="#FEE05B" cx="61.3" cy="118.6" rx="16.2" ry="13.2"/>
			<path fill="#FEE05B" d="M76,106.1c-5,0-7.4,0-5,2.5H51.2c2.5-2.5-2.5-2.5-5-2.5v-2.5H76V106.1z"/>
		</g>
	</g>
</g>
<g id="Cake">
	<g>
		<path fill="#985925" d="M36.7,100.1c-2.6-1.6-12.8-8.7-12.8-20.2v-46l39.3-0.6l31,0.6v45L36.7,100.1z"/>
		<path fill="#481C0E" d="M63.2,34.7l29.5,0.6v42.5L36.9,98.4c-3.1-2-11.5-8.5-11.5-18.6V35.3L63.2,34.7 M63.2,31.7l-40.8,0.6v47.5
			c0,14.2,14.2,21.9,14.2,21.9l59.1-21.9V32.4L63.2,31.7L63.2,31.7z"/>
	</g>
	<g>
		<path fill="#FFFFFF" d="M36.8,62.6c-2.5-1.5-12.9-8.7-12.9-20.3v-10c0-11.5,8.1-17.5,10.3-19l60,20v12.2L36.8,62.6z"/>
		<path fill="#481C0E" d="M34.4,15.1l58.3,19.5v2.2v7.8L37,61c-3-2-11.6-8.5-11.6-18.6v-10C25.4,22.5,31.8,16.9,34.4,15.1 M34,11.8
			c0,0-11.6,6.4-11.6,20.6c0,1,0,3.7,0,10c0,14.2,14.2,21.9,14.2,21.9l59.1-17.5v-10v-4.4L34,11.8L34,11.8z"/>
	</g>
	<g>
		<path fill="#FEE05B" d="M25.4,31.4c0,1-0.1,6.1,0,12.4C25.8,54.5,37,61,37,61l55.7-16V34.5l-56.2,15
			C36.6,49.5,25.4,45.6,25.4,31.4z"/>
	</g>
	<polygon fill="#481C0E" points="34.8,63.1 36,84.2 38.4,63.7 	"/>
	<polygon fill="#481C0E" points="34.9,96.7 35.9,89.6 37,98.4 	"/>
</g>
<g id="Monkey_Wrench">
	<polygon id="Spanner_Shadow" fill="#481C0E" points="59.5,51.7 59.5,91.3 75.9,85.8 75.9,49.3 	"/>
	<path fill="#481C0E" d="M59.6,91.3l19.3,7.5c0,0,7.9,3.8,14,4c6.1,0.2,6.3-5.7,6.3-5.7L77.6,84.6L59.6,91.3z"/>
	<path fill="#481C0E" d="M92.9,102.8c-1.9,0-4.1-0.4-5.9-1.1c-2.2-0.9-3.8-2.2-4.6-3.7c-10.1-20.4-27-54.7-27.2-55.2
		c-0.4-1.1-1.2-2.5-1.6-3.1c-1-0.5-3.4-1.8-6-3.1c-6.9-3.8-7.3-4.5-7.6-5.1l-2.1-4.2v-2.3V23l2-0.3l0.2,0l-1.2-7l0-5.2l0,0
		c-0.1-1.7,1.2-2,1.5-2c0.5-0.1,3-0.4,3.1-0.4l1.2-0.1l6.5,13.2l5.2-0.7l-3.6-9l-0.1-4.8l5.7-0.7c0.1,0,0.2,0,0.3,0
		c0.8,0,1.5,0.4,1.9,0.8l14.7,11.6l0.1,0.1c0.9,0.9,1.6,2.4,1.7,2.7l2.4,5v3.8l-0.4,0.5c-0.2,0.2-4,4.2-6.9,6.8
		c5.6,10.9,27.8,54.1,28,54.6l0,0c0.2,0.5,0.4,1,0.5,1.5l0.1,0.1l0,3.8l0,0.1c-0.2,1.3-0.9,2.5-1.9,3.4c-1.1,1-2.6,1.6-4.3,1.9
		C94,102.8,93.5,102.8,92.9,102.8z"/>
	<path fill="#544842" stroke="#481C0E" stroke-miterlimit="2" d="M77.9,26.2v3c0,0-6.8,7.2-9,8.6c-2.2,1.3-1-2.7-1-2.7L77.9,26.2z"
		/>
	<path fill="#544842" stroke="#481C0E" stroke-miterlimit="10" d="M99.2,97.1c-0.3,1.8-1.8,3.5-4.9,4c-3.3,0.5-9-0.9-10.4-3.9
		c0,0-27-54.6-27.2-55.1c-0.7-1.7-2-3.8-2-3.8s-12.5-6.3-13.2-7.7l-1.9-3.8v-2.4L61,33.7l38.2,60.2L99.2,97.1z"/>
	<polygon fill="#544842" stroke="#481C0E" stroke-miterlimit="2" points="54.4,8.1 54.4,11.1 60.1,25.4 61,21.4 	"/>
	<polygon fill="#544842" stroke="#481C0E" stroke-miterlimit="2" points="40.5,10.4 40.6,15.5 42.9,28.6 43.7,28.6 43.5,23.9 	"/>
	<path fill="#736458" stroke="#481C0E" stroke-miterlimit="10" d="M55.6,36.6c0,0-13.4-6.9-14.1-8.3l-1.9-3.8l21.4-3L54.5,8.1
		l4.2-0.6c0.5-0.1,0.9,0.4,0.9,0.4l14.7,11.6c0.8,0.8,1.4,2.3,1.4,2.3s1.8,3.6,2.2,4.5c0.4,0.8-8.3,8.4-8.3,8.4s-0.3,0.3,0,0.8
		c0.2,0.5,29.3,57.1,29.3,57.1c1.5,3-1.4,5.8-4.5,6.3c-3.3,0.5-8.5-1.2-10-4.2c0,0-27.6-56.7-27.8-57.1C56.3,37,55.6,36.6,55.6,36.6
		z"/>
	<path fill="#736458" stroke="#481C0E" stroke-miterlimit="10" d="M50.2,22.9L43.7,9.7c0,0-2.6,0.3-3.1,0.4
		c-0.5,0.1,2.9,13.8,2.9,13.8L50.2,22.9z"/>
	<polygon fill="#481C0E" points="62.9,25.1 65.4,29.8 54,31.3 51.9,26.6 	"/>
	<path fill="#736458" d="M53.3,27.4l1.1-0.2c0,0,1,0.2,1.6,1.1c0.6,0.9,0.4,1.9,0.3,2.2l-1.1,0.2c0.2-0.5,0.3-1.5-0.2-2.2
		C54.5,27.9,53.3,27.4,53.3,27.4z"/>
	<path fill="#736458" d="M56.2,27l1.1-0.2c0,0,1,0.2,1.6,1.1c0.6,0.9,0.4,1.9,0.3,2.2l-1.1,0.2c0.2-0.5,0.3-1.5-0.2-2.2
		C57.5,27.5,56.2,27,56.2,27z"/>
	<path fill="#736458" d="M59.1,26.6l1.1-0.2c0,0,1,0.2,1.6,1.1c0.6,0.9,0.4,1.9,0.3,2.2l-1.1,0.2c0.2-0.5,0.3-1.5-0.2-2.2
		C60.4,27.1,59.1,26.6,59.1,26.6z"/>
</g>
<g id="Cake_Overlap">
	<polygon fill="#481C0E" points="61.2,41.5 61.4,57.3 57.8,47.2 53.6,39.6 	"/>
	<polygon fill="#FEE05B" points="59.6,54.7 59.6,43.4 55.2,44.6 56.4,55.4 	"/>
	<polygon fill="#FFFFFF" points="54.8,42 59.6,43.4 54.4,44.8 	"/>
</g>
</svg>
