<?xml version="1.0" encoding="utf-8"?>
<!-- Generator: Adobe Illustrator 24.3.0, SVG Export Plug-In . SVG Version: 6.00 Build 0)  -->
<svg version="1.1" id="Camada_1" xmlns="http://www.w3.org/2000/svg" xmlns:xlink="http://www.w3.org/1999/xlink" x="0px" y="0px"
	 viewBox="0 0 5900.64 1000" style="enable-background:new 0 0 5900.64 1000;" xml:space="preserve">
<style type="text/css">
	.st0{fill:#481C0E;}
	.st1{fill:#FC5BC7;}
	.st2{fill:#985925;}
	.st3{fill:#FFFFFF;}
	.st4{fill:#FEE05B;}
	.st5{fill:#544842;stroke:#481C0E;stroke-miterlimit:2;}
	.st6{fill:#544842;stroke:#481C0E;stroke-miterlimit:10;}
	.st7{fill:#736458;stroke:#481C0E;stroke-miterlimit:10;}
	.st8{fill:#736458;}
	.st9{opacity:0.86;fill:#481C0E;}
	.st10{font-family:'BebasNeue-Regular';}
	.st11{font-size:186.8137px;}
	.st12{fill:#FC915B;}
	.st13{font-size:193.4359px;}
	.st14{fill:#C1392B;}
	.st15{fill:#5B76FC;}
	.st16{fill:#C7FC5B;}
</style>
<g>
	<g>
		<path class="st0" d="M4052,941.02c-74.58,0-134.7-50.23-134.7-111.87c0-31.96,16.74-61.64,44.9-82.95
			c-5.33-0.76-13.7-0.76-24.35-0.76h-11.42l0,0h-113.39c-57.84,0-117.2-41.1-117.2-109.59V241.63c0-55.55,57.84-109.59,117.2-109.59
			h477.16c60.12,0,117.2,53.27,117.2,109.59v82.19c0,6.85,0,14.46,0,20.55c20.55-20.55,48.71-31.96,77.62-31.96
			c60.88,0,109.59,49.47,109.59,109.59c0,60.12-49.47,109.59-109.59,109.59c-28.92,0-56.32-11.42-76.86-31.96
			c-0.76,4.57-0.76,11.42-0.76,20.55v114.92c0,55.55-57.84,109.59-117.2,109.59h-114.92h-11.42c-7.61,0-15.98,0-22.83,0
			c28.92,21.31,45.66,50.99,45.66,83.71C4186.7,890.79,4126.58,941.02,4052,941.02z"/>
		<path class="st0" d="M4290.2,142.7c54.79,0,105.78,49.47,105.78,98.17c0,12.94,0,43.38,0,82.19c0,24.35,0,39.57,6.09,39.57
			c2.28,0,4.57-1.52,7.61-4.57c18.26-21.31,44.9-35.01,74.58-35.01c54.03,0,98.17,44.14,98.17,98.17s-44.14,98.17-98.17,98.17
			c-29.68,0-56.32-12.94-74.58-34.25c-2.28-2.28-4.57-3.04-6.09-3.04c-8.37,0-8.37,23.59-8.37,37.29c0,54.03,0,98.17,0,114.92
			c0,49.47-53.27,98.17-105.78,98.17c-16.74,0-66.21,0-127.09,0l0,0c-32.72,0-50.99,0-43.38,12.18
			c32.72,18.26,54.79,48.71,54.79,83.71c0,55.55-55.55,100.46-123.29,100.46c-68.49,0-123.29-44.9-123.29-100.46
			c0-32.72,19.79-62.4,50.23-80.67c9.89-15.22-23.59-15.22-41.1-15.22l0,0c-59.36,0-108.07,0-124.05,0
			c-53.27,0-105.78-37.29-105.78-98.17s0-394.21,0-394.21c0-49.47,53.27-98.17,105.78-98.17
			C3864.78,141.94,4236.17,142.7,4290.2,142.7 M4290.2,119.87h-477.16c-66.21,0-128.61,58.6-128.61,121v394.21
			c0,76.1,65.45,121,128.61,121h101.22h19.03c-18.26,20.55-28.16,46.42-28.16,72.3c0,67.73,65.45,123.29,146.12,123.29
			s146.12-55.55,146.12-123.29c0-26.64-9.89-51.75-28.16-72.3h17.5l0,0h104.26c66.21,0,128.61-58.6,128.61-121V523.21
			c19.79,12.94,42.62,19.79,66.21,19.79c66.97,0,121-54.79,121-121s-54.79-121-121-121c-23.59,0-47.18,6.85-66.21,19.79v-79.15
			C4419.57,179.23,4357.17,119.87,4290.2,119.87L4290.2,119.87z"/>
	</g>
	<g>
		<path class="st0" d="M4067.98,972.98c-74.58,0-134.7-50.23-134.7-111.87c0-31.96,16.74-61.64,44.9-82.95
			c-5.33-0.76-13.7-0.76-24.35-0.76h-11.42l0,0h-113.39c-57.84,0-117.2-41.1-117.2-109.59V273.59c0-55.55,57.84-109.59,117.2-109.59
			h477.16c60.12,0,117.2,53.27,117.2,109.59v82.19c0,6.85,0,14.46,0,20.55c20.55-20.55,48.71-31.96,77.62-31.96
			c60.88,0,109.59,49.47,109.59,109.59c0,60.88-49.47,109.59-109.59,109.59c-28.92,0-56.32-11.42-76.86-31.96
			c-0.76,4.57-0.76,11.42-0.76,20.55v114.92c0,55.55-57.84,109.59-117.2,109.59h-114.92h-11.42c-7.61,0-15.98,0-22.83,0
			c28.92,21.31,45.66,50.99,45.66,83.71C4202.68,922.75,4142.56,972.98,4067.98,972.98z"/>
		<path class="st0" d="M4306.18,174.66c54.79,0,105.78,49.47,105.78,98.17c0,12.94,0,43.38,0,82.19c0,24.35,0,39.57,6.09,39.57
			c2.28,0,4.57-1.52,7.61-4.57c18.26-21.31,44.9-35.01,74.58-35.01c54.03,0,98.17,44.14,98.17,98.17s-44.14,98.17-98.17,98.17
			c-29.68,0-56.32-12.94-74.58-34.25c-2.28-2.28-4.57-3.04-6.09-3.04c-8.37,0-8.37,23.59-8.37,37.29c0,54.03,0,98.17,0,114.92
			c0,49.47-53.27,98.17-105.78,98.17c-16.74,0-66.21,0-127.09,0l0,0c-32.72,0-50.99,0-43.38,12.18
			c32.72,18.26,54.79,48.71,54.79,83.71c0,55.55-55.56,100.46-123.29,100.46c-68.49,0-123.29-44.9-123.29-100.46
			c0-32.72,19.79-62.4,50.23-80.67c9.89-15.22-23.59-15.22-41.1-15.22l0,0c-59.36,0-108.07,0-124.05,0
			c-53.27,0-105.78-37.29-105.78-98.17s0-394.21,0-394.21c0-49.47,53.27-98.17,105.78-98.17
			C3882.29,174.66,4252.15,174.66,4306.18,174.66 M4306.18,151.83h-477.16c-66.21,0-128.61,58.6-128.61,121v394.21
			c0,76.1,65.45,121,128.61,121h101.22h19.03c-18.26,20.55-28.16,46.42-28.16,72.3c0,67.73,65.45,123.29,146.12,123.29
			s146.12-55.55,146.12-123.29c0-26.64-9.89-51.75-28.16-72.3h16.74l0,0h104.26c66.21,0,128.61-58.6,128.61-121V555.17
			c19.79,12.94,42.62,19.79,66.21,19.79c66.97,0,121-54.79,121-121c0-66.97-54.79-121-121-121c-23.59,0-47.18,6.85-66.21,19.79
			v-79.15C4435.56,211.19,4373.15,151.83,4306.18,151.83L4306.18,151.83z"/>
	</g>
	<g>
		<path class="st1" d="M3707.25,241.63c0-49.47,53.27-98.17,105.78-98.17c52.51,0,423.13,0,477.16,0
			c54.03,0,105.78,49.47,105.78,98.17s0,344.75,0,394.21s-53.27,98.17-105.78,98.17s-424.65,0-477.16,0
			c-52.51,0-105.78-37.29-105.78-98.93S3707.25,241.63,3707.25,241.63z"/>
		<g>
			
				<ellipse transform="matrix(0.7071 -0.7071 0.7071 0.7071 1015.4601 3295.5271)" class="st1" cx="4485.78" cy="421.99" rx="98.17" ry="98.17"/>
			<path class="st1" d="M4396.74,323.06c0,32.72,0,49.47,16.74,32.72v131.66c-16.74-16.74-16.74,16.74-16.74,32.72H4380V323.06
				H4396.74z"/>
		</g>
		<g>
			<ellipse class="st1" cx="4052" cy="829.14" rx="123.29" ry="100.46"/>
			<path class="st1" d="M4163.87,734.02c-38.05,0-56.32,0-38.05,19.03h-150.68c19.03-19.03-19.03-19.03-38.05-19.03v-19.03h226.79
				V734.02z"/>
		</g>
	</g>
	<g id="Cake_5_">
		<g>
			<path class="st2" d="M3864.79,688.35c-19.79-12.18-97.41-66.21-97.41-153.73V184.55l299.08-4.57l235.92,4.57v342.46
				L3864.79,688.35z"/>
			<path class="st0" d="M4066.46,190.64l224.5,4.57v323.44l-424.65,156.77c-23.59-15.22-87.52-64.69-87.52-141.55V195.21
				L4066.46,190.64 M4066.46,167.81l-310.5,4.57v361.49c0,108.07,108.07,166.66,108.07,166.66l449.77-166.66V173.14L4066.46,167.81
				L4066.46,167.81z"/>
		</g>
		<g>
			<path class="st3" d="M3865.55,402.97c-19.03-11.42-98.17-66.21-98.17-154.49v-76.1c0-87.52,61.64-133.18,78.39-144.6
				l456.62,152.21v92.85L3865.55,402.97z"/>
			<path class="st0" d="M3847.28,41.48l443.68,148.4v16.74v59.36l-423.89,124.81c-22.83-15.22-88.28-64.69-88.28-141.55v-76.1
				C3778.79,97.8,3827.49,55.18,3847.28,41.48 M3844.24,16.37c0,0-88.28,48.71-88.28,156.77c0,7.61,0,28.16,0,76.1
				c0,108.07,108.07,166.66,108.07,166.66l449.77-133.18v-76.1v-33.49L3844.24,16.37L3844.24,16.37z"/>
		</g>
		<g>
			<path class="st4" d="M3778.79,165.53c0,7.61-0.76,46.42,0,94.37c3.04,81.43,88.28,130.9,88.28,130.9l423.89-121.76v-79.91
				l-427.7,114.15C3864.02,303.27,3778.79,273.59,3778.79,165.53z"/>
		</g>
		<polygon class="st0" points="3850.33,406.77 3859.46,567.35 3877.72,411.34 		"/>
		<polygon class="st0" points="3851.09,662.48 3858.7,608.45 3867.07,675.42 		"/>
	</g>
	<g id="Monkey_Wrench_5_">
		<polygon id="Spanner_Shadow_5_" class="st0" points="4038.3,427.18 4038.3,728.55 4163.11,686.69 4163.11,408.92 		"/>
		<path class="st0" d="M4039.06,728.55l146.88,57.08c0,0,60.12,28.92,106.54,30.44c46.42,1.52,47.94-43.38,47.94-43.38
			l-164.38-95.13L4039.06,728.55z"/>
		<path class="st0" d="M4292.48,816.07c-14.46,0-31.2-3.04-44.9-8.37c-16.74-6.85-28.92-16.74-35.01-28.16
			c-76.86-155.25-205.48-416.28-207-420.09c-3.04-8.37-9.13-19.03-12.18-23.59c-7.61-3.81-25.88-13.7-45.66-23.59
			c-52.51-28.92-55.55-34.25-57.84-38.81l-15.98-31.96v-17.5v-15.22l15.22-2.28h1.52l-9.13-53.27v-39.57l0,0
			c-0.76-12.94,9.13-15.22,11.42-15.22c3.81-0.76,22.83-3.04,23.59-3.04l9.13-0.76l49.47,100.46l39.57-5.33l-27.4-68.49l-0.76-36.53
			l43.38-5.33c0.76,0,1.52,0,2.28,0c6.09,0,11.42,3.04,14.46,6.09l111.87,88.28l0.76,0.76c6.85,6.85,12.18,18.26,12.94,20.55
			l18.26,38.05v28.92l-3.04,3.81c-1.52,1.52-30.44,31.96-52.51,51.75c42.62,82.95,211.57,411.72,213.09,415.52l0,0
			c1.52,3.81,3.04,7.61,3.81,11.42l0.76,0.76v28.92v0.76c-1.52,9.89-6.85,19.03-14.46,25.87c-8.37,7.61-19.79,12.18-32.72,14.46
			C4300.85,816.07,4297.05,816.07,4292.48,816.07z"/>
		<path class="st5" d="M4178.33,233.12v22.83c0,0-51.75,54.79-68.49,65.45c-16.74,9.89-7.61-20.55-7.61-20.55L4178.33,233.12z"/>
		<path class="st6" d="M4340.43,772.69c-2.28,13.7-13.7,26.64-37.29,30.44c-25.11,3.81-68.49-6.85-79.15-29.68
			c0,0-205.48-415.52-207-419.33c-5.33-12.94-15.22-28.92-15.22-28.92s-95.13-47.94-100.46-58.6l-14.46-28.92v-18.26l162.86,70.78
			l290.71,458.14V772.69z"/>
		<polygon class="st5" points="3999.49,95.37 3999.49,118.21 4042.87,227.03 4049.71,196.59 		"/>
		<polygon class="st5" points="3893.7,112.88 3894.47,151.69 3911.97,251.39 3918.06,251.39 3916.53,215.62 		"/>
		<path class="st7" d="M4008.62,312.27c0,0-101.98-52.51-107.3-63.17l-14.46-28.92l162.86-22.83l-49.47-101.98l31.96-4.57
			c3.81-0.76,6.85,3.04,6.85,3.04l111.87,88.28c6.09,6.09,10.65,17.5,10.65,17.5s13.7,27.4,16.74,34.25
			c3.04,6.09-63.17,63.93-63.17,63.93s-2.28,2.28,0,6.09c1.52,3.81,222.98,434.55,222.98,434.55
			c11.42,22.83-10.65,44.14-34.25,47.94c-25.11,3.81-64.69-9.13-76.1-31.96c0,0-210.04-431.5-211.57-434.55
			C4013.95,315.31,4008.62,312.27,4008.62,312.27z"/>
		<path class="st7" d="M3967.52,208.01l-49.47-100.46c0,0-19.79,2.28-23.59,3.04c-3.81,0.76,22.07,105.02,22.07,105.02
			L3967.52,208.01z"/>
		<polygon class="st0" points="4064.17,224.75 4083.2,260.52 3996.44,271.93 3980.46,236.16 		"/>
		<path class="st8" d="M3991.12,242.25l8.37-1.52c0,0,7.61,1.52,12.18,8.37c4.57,6.85,3.04,14.46,2.28,16.74l-8.37,1.52
			c1.52-3.81,2.28-11.42-1.52-16.74C4000.25,246.06,3991.12,242.25,3991.12,242.25z"/>
		<path class="st8" d="M4013.19,239.21l8.37-1.52c0,0,7.61,1.52,12.18,8.37s3.04,14.46,2.28,16.74l-8.37,1.52
			c1.52-3.81,2.28-11.42-1.52-16.74C4023.08,243.01,4013.19,239.21,4013.19,239.21z"/>
		<path class="st8" d="M4035.26,236.16l8.37-1.52c0,0,7.61,1.52,12.18,8.37c4.57,6.85,3.04,14.46,2.28,16.74l-8.37,1.52
			c1.52-3.81,2.28-11.42-1.52-16.74C4045.15,239.97,4035.26,236.16,4035.26,236.16z"/>
	</g>
	<g>
		<path class="st9" d="M4365.19,712.14h-622.62c-27.36,0-49.54-22.18-49.54-49.54v-74.73c0-27.36,22.18-49.54,49.54-49.54h622.62
			c27.36,0,49.54,22.18,49.54,49.54v74.73C4414.73,689.96,4392.55,712.14,4365.19,712.14z"/>
		<g>
			<text transform="matrix(1 0 0 1 3713.5076 685.9501)" class="st4 st10 st11">community</text>
		</g>
	</g>
</g>
<g>
	<g>
		<path class="st0" d="M2888.12,941.02c-74.58,0-134.7-50.23-134.7-111.87c0-31.96,16.74-61.64,44.9-82.95
			c-5.33-0.76-13.7-0.76-24.35-0.76h-11.42l0,0h-113.39c-57.84,0-117.2-41.1-117.2-109.59V241.63c0-55.55,57.84-109.59,117.2-109.59
			h477.16c60.12,0,117.2,53.27,117.2,109.59v82.19c0,6.85,0,14.46,0,20.55c20.55-20.55,48.71-31.96,77.62-31.96
			c60.88,0,109.59,49.47,109.59,109.59c0,60.12-49.47,109.59-109.59,109.59c-28.92,0-56.32-11.42-76.86-31.96
			c-0.76,4.57-0.76,11.42-0.76,20.55v114.92c0,55.55-57.84,109.59-117.2,109.59h-114.91h-11.42c-7.61,0-15.98,0-22.83,0
			c28.92,21.31,45.66,50.99,45.66,83.71C3022.82,890.79,2962.7,941.02,2888.12,941.02z"/>
		<path class="st0" d="M3126.32,142.7c54.79,0,105.78,49.47,105.78,98.17c0,12.94,0,43.38,0,82.19c0,24.35,0,39.57,6.09,39.57
			c2.28,0,4.57-1.52,7.61-4.57c18.26-21.31,44.9-35.01,74.58-35.01c54.03,0,98.17,44.14,98.17,98.17s-44.14,98.17-98.17,98.17
			c-29.68,0-56.32-12.94-74.58-34.25c-2.28-2.28-4.57-3.04-6.09-3.04c-8.37,0-8.37,23.59-8.37,37.29c0,54.03,0,98.17,0,114.92
			c0,49.47-53.27,98.17-105.78,98.17c-16.74,0-66.21,0-127.09,0l0,0c-32.72,0-50.99,0-43.38,12.18
			c32.72,18.26,54.79,48.71,54.79,83.71c0,55.55-55.55,100.46-123.29,100.46c-68.49,0-123.29-44.9-123.29-100.46
			c0-32.72,19.79-62.4,50.23-80.67c9.89-15.22-23.59-15.22-41.1-15.22l0,0c-59.36,0-108.07,0-124.05,0
			c-53.27,0-105.78-37.29-105.78-98.17s0-394.21,0-394.21c0-49.47,53.27-98.17,105.78-98.17
			C2700.91,141.94,3072.29,142.7,3126.32,142.7 M3126.32,119.87h-477.16c-66.21,0-128.61,58.6-128.61,121v394.21
			c0,76.1,65.45,121,128.61,121h101.22h19.03c-18.26,20.55-28.16,46.42-28.16,72.3c0,67.73,65.45,123.29,146.12,123.29
			c80.67,0,146.12-55.55,146.12-123.29c0-26.64-9.89-51.75-28.16-72.3h17.5l0,0h104.26c66.21,0,128.61-58.6,128.61-121V523.21
			c19.79,12.94,42.62,19.79,66.21,19.79c66.97,0,121-54.79,121-121s-54.79-121-121-121c-23.59,0-47.18,6.85-66.21,19.79v-79.15
			C3255.7,179.23,3193.29,119.87,3126.32,119.87L3126.32,119.87z"/>
	</g>
	<g>
		<path class="st0" d="M2904.1,972.98c-74.58,0-134.7-50.23-134.7-111.87c0-31.96,16.74-61.64,44.9-82.95
			c-5.33-0.76-13.7-0.76-24.35-0.76h-11.42l0,0h-113.39c-57.84,0-117.2-41.1-117.2-109.59V273.59c0-55.55,57.84-109.59,117.2-109.59
			h477.16c60.12,0,117.2,53.27,117.2,109.59v82.19c0,6.85,0,14.46,0,20.55c20.55-20.55,48.71-31.96,77.62-31.96
			c60.88,0,109.59,49.47,109.59,109.59c0,60.88-49.47,109.59-109.59,109.59c-28.92,0-56.32-11.42-76.86-31.96
			c-0.76,4.57-0.76,11.42-0.76,20.55v114.92c0,55.55-57.84,109.59-117.2,109.59h-114.92h-11.42c-7.61,0-15.98,0-22.83,0
			c28.92,21.31,45.66,50.99,45.66,83.71C3038.81,922.75,2978.68,972.98,2904.1,972.98z"/>
		<path class="st0" d="M3142.31,174.66c54.79,0,105.78,49.47,105.78,98.17c0,12.94,0,43.38,0,82.19c0,24.35,0,39.57,6.09,39.57
			c2.28,0,4.57-1.52,7.61-4.57c18.26-21.31,44.9-35.01,74.58-35.01c54.03,0,98.17,44.14,98.17,98.17s-44.14,98.17-98.17,98.17
			c-29.68,0-56.32-12.94-74.58-34.25c-2.28-2.28-4.57-3.04-6.09-3.04c-8.37,0-8.37,23.59-8.37,37.29c0,54.03,0,98.17,0,114.92
			c0,49.47-53.27,98.17-105.78,98.17c-16.74,0-66.21,0-127.09,0l0,0c-32.72,0-50.99,0-43.38,12.18
			c32.72,18.26,54.79,48.71,54.79,83.71c0,55.55-55.56,100.46-123.29,100.46c-68.49,0-123.29-44.9-123.29-100.46
			c0-32.72,19.79-62.4,50.23-80.67c9.89-15.22-23.59-15.22-41.1-15.22l0,0c-59.36,0-108.07,0-124.05,0
			c-53.27,0-105.78-37.29-105.78-98.17s0-394.21,0-394.21c0-49.47,53.27-98.17,105.78-98.17
			C2718.41,174.66,3088.27,174.66,3142.31,174.66 M3142.31,151.83h-477.16c-66.21,0-128.61,58.6-128.61,121v394.21
			c0,76.1,65.45,121,128.61,121h101.22h19.03c-18.26,20.55-28.16,46.42-28.16,72.3c0,67.73,65.45,123.29,146.12,123.29
			s146.12-55.55,146.12-123.29c0-26.64-9.89-51.75-28.16-72.3h16.74l0,0h104.26c66.21,0,128.61-58.6,128.61-121V555.17
			c19.79,12.94,42.62,19.79,66.21,19.79c66.97,0,121-54.79,121-121c0-66.97-54.79-121-121-121c-23.59,0-47.18,6.85-66.21,19.79
			v-79.15C3271.68,211.19,3209.28,151.83,3142.31,151.83L3142.31,151.83z"/>
	</g>
	<g>
		<g>
			<path class="st12" d="M2543.38,241.63c0-49.47,53.27-98.17,105.78-98.17c52.51,0,423.13,0,477.16,0
				c54.03,0,105.78,49.47,105.78,98.17s0,344.75,0,394.21s-53.27,98.17-105.78,98.17c-52.51,0-424.65,0-477.16,0
				c-52.51,0-105.78-37.29-105.78-98.93S2543.38,241.63,2543.38,241.63z"/>
			<g>
				
					<ellipse transform="matrix(0.7071 -0.7071 0.7071 0.7071 674.569 2472.5432)" class="st12" cx="3321.91" cy="421.99" rx="98.17" ry="98.17"/>
				<path class="st12" d="M3232.87,323.06c0,32.72,0,49.47,16.74,32.72v131.66c-16.74-16.74-16.74,16.74-16.74,32.72h-16.74V323.06
					H3232.87z"/>
			</g>
			<g>
				<ellipse class="st12" cx="2888.12" cy="829.14" rx="123.29" ry="100.46"/>
				<path class="st12" d="M2999.99,734.02c-38.05,0-56.32,0-38.05,19.03h-150.68c19.03-19.03-19.03-19.03-38.05-19.03v-19.03h226.79
					V734.02z"/>
			</g>
		</g>
	</g>
	<g id="Cake_4_">
		<g>
			<path class="st2" d="M2700.91,688.35c-19.79-12.18-97.41-66.21-97.41-153.73V184.55l299.08-4.57l235.92,4.57v342.46
				L2700.91,688.35z"/>
			<path class="st0" d="M2902.58,190.64l224.5,4.57v323.44l-424.65,156.77c-23.59-15.22-87.52-64.69-87.52-141.55V195.21
				L2902.58,190.64 M2902.58,167.81l-310.5,4.57v361.49c0,108.07,108.07,166.66,108.07,166.66l449.77-166.66V173.14L2902.58,167.81
				L2902.58,167.81z"/>
		</g>
		<g>
			<path class="st3" d="M2701.67,402.97c-19.03-11.42-98.17-66.21-98.17-154.49v-76.1c0-87.52,61.64-133.18,78.39-144.6
				l456.62,152.21v92.85L2701.67,402.97z"/>
			<path class="st0" d="M2683.41,41.48l443.68,148.4v16.74v59.36l-423.89,124.81c-22.83-15.22-88.28-64.69-88.28-141.55v-76.1
				C2614.91,97.8,2663.62,55.18,2683.41,41.48 M2680.36,16.37c0,0-88.28,48.71-88.28,156.77c0,7.61,0,28.16,0,76.1
				c0,108.07,108.07,166.66,108.07,166.66l449.77-133.18v-76.1v-33.49L2680.36,16.37L2680.36,16.37z"/>
		</g>
		<g>
			<path class="st4" d="M2614.91,165.53c0,7.61-0.76,46.42,0,94.37c3.04,81.43,88.28,130.9,88.28,130.9l423.89-121.76v-79.91
				l-427.7,114.15C2700.15,303.27,2614.91,273.59,2614.91,165.53z"/>
		</g>
		<polygon class="st0" points="2686.45,406.77 2695.58,567.35 2713.85,411.34 		"/>
		<polygon class="st0" points="2687.21,662.48 2694.82,608.45 2703.19,675.42 		"/>
	</g>
	<g id="Monkey_Wrench_4_">
		<polygon id="Spanner_Shadow_4_" class="st0" points="2874.42,427.18 2874.42,728.55 2999.23,686.69 2999.23,408.92 		"/>
		<path class="st0" d="M2875.19,728.55l146.88,57.08c0,0,60.12,28.92,106.54,30.44s47.94-43.38,47.94-43.38l-164.38-95.13
			L2875.19,728.55z"/>
		<path class="st0" d="M3128.61,816.07c-14.46,0-31.2-3.04-44.9-8.37c-16.74-6.85-28.92-16.74-35.01-28.16
			c-76.86-155.25-205.48-416.28-207-420.09c-3.04-8.37-9.13-19.03-12.18-23.59c-7.61-3.81-25.88-13.7-45.66-23.59
			c-52.51-28.92-55.55-34.25-57.84-38.81l-15.98-31.96v-17.5v-15.22l15.22-2.28h1.52l-9.13-53.27v-39.57l0,0
			c-0.76-12.94,9.13-15.22,11.42-15.22c3.81-0.76,22.83-3.04,23.59-3.04l9.13-0.76l49.47,100.46l39.57-5.33l-27.4-68.49l-0.76-36.53
			l43.38-5.33c0.76,0,1.52,0,2.28,0c6.09,0,11.42,3.04,14.46,6.09l111.87,88.28l0.76,0.76c6.85,6.85,12.18,18.26,12.94,20.55
			l18.26,38.05v28.92l-3.04,3.81c-1.52,1.52-30.44,31.96-52.51,51.75c42.62,82.95,211.57,411.72,213.09,415.52l0,0
			c1.52,3.81,3.04,7.61,3.81,11.42l0.76,0.76v28.92v0.76c-1.52,9.89-6.85,19.03-14.46,25.87c-8.37,7.61-19.79,12.18-32.72,14.46
			C3136.98,816.07,3133.17,816.07,3128.61,816.07z"/>
		<path class="st5" d="M3014.45,233.12v22.83c0,0-51.75,54.79-68.49,65.45c-16.74,9.89-7.61-20.55-7.61-20.55L3014.45,233.12z"/>
		<path class="st6" d="M3176.55,772.69c-2.28,13.7-13.7,26.64-37.29,30.44c-25.11,3.81-68.49-6.85-79.15-29.68
			c0,0-205.48-415.52-207-419.33c-5.33-12.94-15.22-28.92-15.22-28.92s-95.13-47.94-100.46-58.6l-14.46-28.92v-18.26l162.86,70.78
			l290.71,458.14V772.69z"/>
		<polygon class="st5" points="2835.61,95.37 2835.61,118.21 2878.99,227.03 2885.84,196.59 		"/>
		<polygon class="st5" points="2729.83,112.88 2730.59,151.69 2748.09,251.39 2754.18,251.39 2752.66,215.62 		"/>
		<path class="st7" d="M2844.74,312.27c0,0-101.98-52.51-107.3-63.17l-14.46-28.92l162.86-22.83l-49.47-101.98l31.96-4.57
			c3.81-0.76,6.85,3.04,6.85,3.04l111.87,88.28c6.09,6.09,10.65,17.5,10.65,17.5s13.7,27.4,16.74,34.25
			c3.04,6.09-63.17,63.93-63.17,63.93s-2.28,2.28,0,6.09c1.52,3.81,222.98,434.55,222.98,434.55
			c11.42,22.83-10.65,44.14-34.25,47.94c-25.11,3.81-64.69-9.13-76.1-31.96c0,0-210.04-431.5-211.57-434.55
			C2850.07,315.31,2844.74,312.27,2844.74,312.27z"/>
		<path class="st7" d="M2803.65,208.01l-49.47-100.46c0,0-19.79,2.28-23.59,3.04c-3.81,0.76,22.07,105.02,22.07,105.02
			L2803.65,208.01z"/>
		<polygon class="st0" points="2900.3,224.75 2919.32,260.52 2832.57,271.93 2816.59,236.16 		"/>
		<path class="st8" d="M2827.24,242.25l8.37-1.52c0,0,7.61,1.52,12.18,8.37c4.57,6.85,3.04,14.46,2.28,16.74l-8.37,1.52
			c1.52-3.81,2.28-11.42-1.52-16.74C2836.37,246.06,2827.24,242.25,2827.24,242.25z"/>
		<path class="st8" d="M2849.31,239.21l8.37-1.52c0,0,7.61,1.52,12.18,8.37s3.04,14.46,2.28,16.74l-8.37,1.52
			c1.52-3.81,2.28-11.42-1.52-16.74C2859.2,243.01,2849.31,239.21,2849.31,239.21z"/>
		<path class="st8" d="M2871.38,236.16l8.37-1.52c0,0,7.61,1.52,12.18,8.37c4.57,6.85,3.04,14.46,2.28,16.74l-8.37,1.52
			c1.52-3.81,2.28-11.42-1.52-16.74C2881.27,239.97,2871.38,236.16,2871.38,236.16z"/>
	</g>
	<g>
		<path class="st9" d="M3224.87,712.14h-658.69c-17.4,0-31.51-14.11-31.51-31.51v-110.8c0-17.4,14.11-31.51,31.51-31.51h658.69
			c17.4,0,31.51,14.11,31.51,31.51v110.8C3256.37,698.03,3242.27,712.14,3224.87,712.14z"/>
		<g>
			<text transform="matrix(1 0 0 1 2693.3816 688.1024)" class="st4 st10 st13">recipe</text>
		</g>
	</g>
</g>
<g>
	<g>
		<path class="st0" d="M5226.88,941.02c-74.58,0-134.7-50.23-134.7-111.87c0-31.96,16.74-61.64,44.9-82.95
			c-5.33-0.76-13.7-0.76-24.35-0.76h-11.42l0,0h-113.39c-57.84,0-117.2-41.1-117.2-109.59V241.63c0-55.55,57.84-109.59,117.2-109.59
			h477.16c60.12,0,117.2,53.27,117.2,109.59v82.19c0,6.85,0,14.46,0,20.55c20.55-20.55,48.71-31.96,77.62-31.96
			c60.88,0,109.59,49.47,109.59,109.59c0,60.12-49.47,109.59-109.59,109.59c-28.92,0-56.32-11.42-76.86-31.96
			c-0.76,4.57-0.76,11.42-0.76,20.55v114.92c0,55.55-57.84,109.59-117.2,109.59h-114.92h-11.42c-7.61,0-15.98,0-22.83,0
			c28.92,21.31,45.66,50.99,45.66,83.71C5361.58,890.79,5301.46,941.02,5226.88,941.02z"/>
		<path class="st0" d="M5465.08,142.7c54.79,0,105.78,49.47,105.78,98.17c0,12.94,0,43.38,0,82.19c0,24.35,0,39.57,6.09,39.57
			c2.28,0,4.57-1.52,7.61-4.57c18.26-21.31,44.9-35.01,74.58-35.01c54.03,0,98.17,44.14,98.17,98.17s-44.14,98.17-98.17,98.17
			c-29.68,0-56.32-12.94-74.58-34.25c-2.28-2.28-4.57-3.04-6.09-3.04c-8.37,0-8.37,23.59-8.37,37.29c0,54.03,0,98.17,0,114.92
			c0,49.47-53.27,98.17-105.78,98.17c-16.74,0-66.21,0-127.09,0l0,0c-32.72,0-50.99,0-43.38,12.18
			c32.72,18.26,54.79,48.71,54.79,83.71c0,55.55-55.56,100.46-123.29,100.46c-68.49,0-123.29-44.9-123.29-100.46
			c0-32.72,19.79-62.4,50.23-80.67c9.89-15.22-23.59-15.22-41.1-15.22l0,0c-59.36,0-108.07,0-124.05,0
			c-53.27,0-105.78-37.29-105.78-98.17s0-394.21,0-394.21c0-49.47,53.27-98.17,105.78-98.17
			C5039.67,141.94,5411.05,142.7,5465.08,142.7 M5465.08,119.87h-477.16c-66.21,0-128.61,58.6-128.61,121v394.21
			c0,76.1,65.45,121,128.61,121h101.22h19.03c-18.26,20.55-28.16,46.42-28.16,72.3c0,67.73,65.45,123.29,146.12,123.29
			s146.12-55.55,146.12-123.29c0-26.64-9.89-51.75-28.16-72.3h17.5l0,0h104.26c66.21,0,128.61-58.6,128.61-121V523.21
			c19.79,12.94,42.62,19.79,66.21,19.79c66.97,0,121-54.79,121-121s-54.79-121-121-121c-23.59,0-47.18,6.85-66.21,19.79v-79.15
			C5594.46,179.23,5532.05,119.87,5465.08,119.87L5465.08,119.87z"/>
	</g>
	<g>
		<path class="st0" d="M5242.86,972.98c-74.58,0-134.7-50.23-134.7-111.87c0-31.96,16.74-61.64,44.9-82.95
			c-5.33-0.76-13.7-0.76-24.35-0.76h-11.42l0,0H5003.9c-57.84,0-117.2-41.1-117.2-109.59V273.59c0-55.55,57.84-109.59,117.2-109.59
			h477.16c60.12,0,117.2,53.27,117.2,109.59v82.19c0,6.85,0,14.46,0,20.55c20.55-20.55,48.71-31.96,77.63-31.96
			c60.88,0,109.59,49.47,109.59,109.59c0,60.88-49.47,109.59-109.59,109.59c-28.92,0-56.32-11.42-76.86-31.96
			c-0.76,4.57-0.76,11.42-0.76,20.55v114.92c0,55.55-57.84,109.59-117.2,109.59h-114.92h-11.42c-7.61,0-15.98,0-22.83,0
			c28.92,21.31,45.66,50.99,45.66,83.71C5377.56,922.75,5317.44,972.98,5242.86,972.98z"/>
		<path class="st0" d="M5481.06,174.66c54.79,0,105.78,49.47,105.78,98.17c0,12.94,0,43.38,0,82.19c0,24.35,0,39.57,6.09,39.57
			c2.28,0,4.57-1.52,7.61-4.57c18.26-21.31,44.9-35.01,74.58-35.01c54.03,0,98.17,44.14,98.17,98.17s-44.14,98.17-98.17,98.17
			c-29.68,0-56.32-12.94-74.58-34.25c-2.28-2.28-4.57-3.04-6.09-3.04c-8.37,0-8.37,23.59-8.37,37.29c0,54.03,0,98.17,0,114.92
			c0,49.47-53.27,98.17-105.78,98.17c-16.74,0-66.21,0-127.09,0l0,0c-32.72,0-50.99,0-43.38,12.18
			c32.72,18.26,54.79,48.71,54.79,83.71c0,55.55-55.56,100.46-123.29,100.46c-68.49,0-123.29-44.9-123.29-100.46
			c0-32.72,19.79-62.4,50.23-80.67c9.89-15.22-23.59-15.22-41.1-15.22l0,0c-59.36,0-108.07,0-124.05,0
			c-53.27,0-105.78-37.29-105.78-98.17s0-394.21,0-394.21c0-49.47,53.27-98.17,105.78-98.17
			C5057.17,174.66,5427.03,174.66,5481.06,174.66 M5481.06,151.83H5003.9c-66.21,0-128.61,58.6-128.61,121v394.21
			c0,76.1,65.45,121,128.61,121h101.22h19.03c-18.26,20.55-28.16,46.42-28.16,72.3c0,67.73,65.45,123.29,146.12,123.29
			s146.12-55.55,146.12-123.29c0-26.64-9.89-51.75-28.16-72.3h16.74l0,0h104.26c66.21,0,128.61-58.6,128.61-121V555.17
			c19.79,12.94,42.62,19.79,66.21,19.79c66.97,0,121-54.79,121-121c0-66.97-54.79-121-121-121c-23.59,0-47.18,6.85-66.21,19.79
			v-79.15C5610.44,211.19,5548.04,151.83,5481.06,151.83L5481.06,151.83z"/>
	</g>
	<g>
		<path class="st14" d="M4882.14,241.63c0-49.47,53.27-98.17,105.78-98.17c52.51,0,423.13,0,477.16,0s105.78,49.47,105.78,98.17
			s0,344.75,0,394.21s-53.27,98.17-105.78,98.17s-424.65,0-477.16,0c-52.51,0-105.78-37.29-105.78-98.93
			S4882.14,241.63,4882.14,241.63z"/>
		<g>
			
				<ellipse transform="matrix(0.7071 -0.7071 0.7071 0.7071 1359.5757 4126.2954)" class="st14" cx="5660.67" cy="421.99" rx="98.17" ry="98.17"/>
			<path class="st14" d="M5571.63,323.06c0,32.72,0,49.47,16.74,32.72v131.66c-16.74-16.74-16.74,16.74-16.74,32.72h-16.74V323.06
				H5571.63z"/>
		</g>
		<g>
			<ellipse class="st14" cx="5226.88" cy="829.14" rx="123.29" ry="100.46"/>
			<path class="st14" d="M5338.75,734.02c-38.05,0-56.32,0-38.05,19.03h-150.68c19.03-19.03-19.03-19.03-38.05-19.03v-19.03h226.79
				V734.02z"/>
		</g>
	</g>
	<g id="Cake_3_">
		<g>
			<path class="st2" d="M5039.67,688.35c-19.79-12.18-97.41-66.21-97.41-153.73V184.55l299.08-4.57l235.92,4.57v342.46
				L5039.67,688.35z"/>
			<path class="st0" d="M5241.34,190.64l224.5,4.57v323.44l-424.65,156.77c-23.59-15.22-87.52-64.69-87.52-141.55V195.21
				L5241.34,190.64 M5241.34,167.81l-310.5,4.57v361.49c0,108.07,108.07,166.66,108.07,166.66l449.77-166.66V173.14L5241.34,167.81
				L5241.34,167.81z"/>
		</g>
		<g>
			<path class="st3" d="M5040.43,402.97c-19.03-11.42-98.17-66.21-98.17-154.49v-76.1c0-87.52,61.64-133.18,78.39-144.6
				l456.62,152.21v92.85L5040.43,402.97z"/>
			<path class="st0" d="M5022.17,41.48l443.68,148.4v16.74v59.36l-423.89,124.81c-22.83-15.22-88.28-64.69-88.28-141.55v-76.1
				C4953.67,97.8,5002.38,55.18,5022.17,41.48 M5019.12,16.37c0,0-88.28,48.71-88.28,156.77c0,7.61,0,28.16,0,76.1
				c0,108.07,108.07,166.66,108.07,166.66l449.77-133.18v-76.1v-33.49L5019.12,16.37L5019.12,16.37z"/>
		</g>
		<g>
			<path class="st4" d="M4953.67,165.53c0,7.61-0.76,46.42,0,94.37c3.04,81.43,88.28,130.9,88.28,130.9l423.89-121.76v-79.91
				l-427.7,114.15C5038.91,303.27,4953.67,273.59,4953.67,165.53z"/>
		</g>
		<polygon class="st0" points="5025.21,406.77 5034.34,567.35 5052.61,411.34 		"/>
		<polygon class="st0" points="5025.97,662.48 5033.58,608.45 5041.95,675.42 		"/>
	</g>
	<g id="Monkey_Wrench_3_">
		<polygon id="Spanner_Shadow_3_" class="st0" points="5213.18,427.18 5213.18,728.55 5337.99,686.69 5337.99,408.92 		"/>
		<path class="st0" d="M5213.94,728.55l146.88,57.08c0,0,60.12,28.92,106.54,30.44c46.42,1.52,47.94-43.38,47.94-43.38
			l-164.38-95.13L5213.94,728.55z"/>
		<path class="st0" d="M5467.37,816.07c-14.46,0-31.2-3.04-44.9-8.37c-16.74-6.85-28.92-16.74-35.01-28.16
			c-76.86-155.25-205.48-416.28-207-420.09c-3.04-8.37-9.13-19.03-12.18-23.59c-7.61-3.81-25.88-13.7-45.66-23.59
			c-52.51-28.92-55.56-34.25-57.84-38.81l-15.98-31.96v-17.5v-15.22l15.22-2.28h1.52l-9.13-53.27v-39.57l0,0
			c-0.76-12.94,9.13-15.22,11.42-15.22c3.81-0.76,22.83-3.04,23.59-3.04l9.13-0.76l49.47,100.46l39.57-5.33l-27.4-68.49l-0.76-36.53
			l43.38-5.33c0.76,0,1.52,0,2.28,0c6.09,0,11.42,3.04,14.46,6.09l111.87,88.28l0.76,0.76c6.85,6.85,12.18,18.26,12.94,20.55
			l18.26,38.05v28.92l-3.04,3.81c-1.52,1.52-30.44,31.96-52.51,51.75c42.62,82.95,211.57,411.72,213.09,415.52l0,0
			c1.52,3.81,3.04,7.61,3.8,11.42l0.76,0.76v28.92v0.76c-1.52,9.89-6.85,19.03-14.46,25.87c-8.37,7.61-19.79,12.18-32.72,14.46
			C5475.74,816.07,5471.93,816.07,5467.37,816.07z"/>
		<path class="st5" d="M5353.21,233.12v22.83c0,0-51.75,54.79-68.49,65.45c-16.74,9.89-7.61-20.55-7.61-20.55L5353.21,233.12z"/>
		<path class="st6" d="M5515.31,772.69c-2.28,13.7-13.7,26.64-37.29,30.44c-25.11,3.81-68.49-6.85-79.15-29.68
			c0,0-205.48-415.52-207-419.33c-5.33-12.94-15.22-28.92-15.22-28.92s-95.13-47.94-100.46-58.6l-14.46-28.92v-18.26l162.86,70.78
			l290.71,458.14V772.69z"/>
		<polygon class="st5" points="5174.37,95.37 5174.37,118.21 5217.75,227.03 5224.6,196.59 		"/>
		<polygon class="st5" points="5068.59,112.88 5069.35,151.69 5086.85,251.39 5092.94,251.39 5091.42,215.62 		"/>
		<path class="st7" d="M5183.5,312.27c0,0-101.98-52.51-107.3-63.17l-14.46-28.92l162.86-22.83l-49.47-101.98l31.96-4.57
			c3.81-0.76,6.85,3.04,6.85,3.04l111.87,88.28c6.09,6.09,10.65,17.5,10.65,17.5s13.7,27.4,16.74,34.25
			c3.04,6.09-63.17,63.93-63.17,63.93s-2.28,2.28,0,6.09c1.52,3.81,222.98,434.55,222.98,434.55
			c11.42,22.83-10.65,44.14-34.25,47.94c-25.11,3.81-64.69-9.13-76.1-31.96c0,0-210.04-431.5-211.57-434.55
			C5188.83,315.31,5183.5,312.27,5183.5,312.27z"/>
		<path class="st7" d="M5142.41,208.01l-49.47-100.46c0,0-19.79,2.28-23.59,3.04c-3.81,0.76,22.07,105.02,22.07,105.02
			L5142.41,208.01z"/>
		<polygon class="st0" points="5239.06,224.75 5258.08,260.52 5171.33,271.93 5155.35,236.16 		"/>
		<path class="st8" d="M5166,242.25l8.37-1.52c0,0,7.61,1.52,12.18,8.37c4.57,6.85,3.04,14.46,2.28,16.74l-8.37,1.52
			c1.52-3.81,2.28-11.42-1.52-16.74C5175.13,246.06,5166,242.25,5166,242.25z"/>
		<path class="st8" d="M5188.07,239.21l8.37-1.52c0,0,7.61,1.52,12.18,8.37c4.57,6.85,3.04,14.46,2.28,16.74l-8.37,1.52
			c1.52-3.81,2.28-11.42-1.52-16.74C5197.96,243.01,5188.07,239.21,5188.07,239.21z"/>
		<path class="st8" d="M5210.14,236.16l8.37-1.52c0,0,7.61,1.52,12.18,8.37c4.57,6.85,3.04,14.46,2.28,16.74l-8.37,1.52
			c1.52-3.81,2.28-11.42-1.52-16.74C5220.03,239.97,5210.14,236.16,5210.14,236.16z"/>
	</g>
	<g>
		<path class="st9" d="M5529.8,714.99h-611.5c-26.95,0-48.79-21.84-48.79-48.79V425.6c0-26.95,21.84-48.79,48.79-48.79h611.5
			c26.95,0,48.79,21.84,48.79,48.79v240.6C5578.59,693.15,5556.75,714.99,5529.8,714.99z"/>
		<g>
			<text transform="matrix(1 0 0 1 4937.9307 524.3708)"><tspan x="0" y="0" class="st4 st10 st13">Frosting</tspan><tspan x="62.19" y="168.8" class="st4 st10 st13"> Recipe</tspan></text>
		</g>
	</g>
</g>
<g>
	<g>
		<path class="st0" d="M578.78,941.02c-74.58,0-134.7-50.23-134.7-111.87c0-31.96,16.74-61.64,44.9-82.95
			c-5.33-0.76-13.7-0.76-24.35-0.76h-11.42l0,0H339.82c-57.84,0-117.2-41.1-117.2-109.59V241.63c0-55.55,57.84-109.59,117.2-109.59
			h477.16c60.12,0,117.2,53.27,117.2,109.59v82.19c0,6.85,0,14.46,0,20.55c20.55-20.55,48.71-31.96,77.62-31.96
			c60.88,0,109.59,49.47,109.59,109.59c0,60.12-49.47,109.59-109.59,109.59c-28.92,0-56.32-11.42-76.86-31.96
			c-0.76,4.57-0.76,11.42-0.76,20.55v114.92c0,55.55-57.84,109.59-117.2,109.59H702.07h-11.42c-7.61,0-15.98,0-22.83,0
			c28.92,21.31,45.66,50.99,45.66,83.71C713.49,890.79,653.36,941.02,578.78,941.02z"/>
		<path class="st0" d="M816.98,142.7c54.79,0,105.78,49.47,105.78,98.17c0,12.94,0,43.38,0,82.19c0,24.35,0,39.57,6.09,39.57
			c2.28,0,4.57-1.52,7.61-4.57c18.26-21.31,44.9-35.01,74.58-35.01c54.03,0,98.17,44.14,98.17,98.17s-44.14,98.17-98.17,98.17
			c-29.68,0-56.32-12.94-74.58-34.25c-2.28-2.28-4.57-3.04-6.09-3.04c-8.37,0-8.37,23.59-8.37,37.29c0,54.03,0,98.17,0,114.92
			c0,49.47-53.27,98.17-105.78,98.17c-16.74,0-66.21,0-127.09,0l0,0c-32.72,0-50.99,0-43.38,12.18
			c32.72,18.26,54.79,48.71,54.79,83.71c0,55.55-55.55,100.46-123.29,100.46c-68.49,0-123.29-44.9-123.29-100.46
			c0-32.72,19.79-62.4,50.23-80.67c9.89-15.22-23.59-15.22-41.1-15.22l0,0c-59.36,0-108.07,0-124.05,0
			c-53.27,0-105.78-37.29-105.78-98.17s0-394.21,0-394.21c0-49.47,53.27-98.17,105.78-98.17S762.95,142.7,816.98,142.7
			 M816.98,119.87H339.82c-66.21,0-128.61,58.6-128.61,121v394.21c0,76.1,65.45,121,128.61,121h101.22h19.03
			c-18.26,20.55-28.16,46.42-28.16,72.3c0,67.73,65.45,123.29,146.12,123.29s146.12-55.55,146.12-123.29
			c0-26.64-9.89-51.75-28.16-72.3h17.5l0,0h104.26c66.21,0,128.61-58.6,128.61-121V523.21c19.79,12.94,42.62,19.79,66.21,19.79
			c66.97,0,121-54.79,121-121s-54.79-121-121-121c-23.59,0-47.18,6.85-66.21,19.79v-79.15
			C946.36,179.23,883.96,119.87,816.98,119.87L816.98,119.87z"/>
	</g>
	<g>
		<path class="st0" d="M594.77,972.98c-74.58,0-134.7-50.23-134.7-111.87c0-31.96,16.74-61.64,44.9-82.95
			c-5.33-0.76-13.7-0.76-24.35-0.76H469.2l0,0H355.8c-57.84,0-117.2-41.1-117.2-109.59V273.59c0-55.55,57.84-109.59,117.2-109.59
			h477.16c60.12,0,117.2,53.27,117.2,109.59v82.19c0,6.85,0,14.46,0,20.55c20.55-20.55,48.71-31.96,77.62-31.96
			c60.88,0,109.59,49.47,109.59,109.59c0,60.88-49.47,109.59-109.59,109.59c-28.92,0-56.32-11.42-76.86-31.96
			c-0.76,4.57-0.76,11.42-0.76,20.55v114.92c0,55.55-57.84,109.59-117.2,109.59H718.05h-11.42c-7.61,0-15.98,0-22.83,0
			c28.92,21.31,45.66,50.99,45.66,83.71C729.47,922.75,669.35,972.98,594.77,972.98z"/>
		<path class="st0" d="M832.97,174.66c54.79,0,105.78,49.47,105.78,98.17c0,12.94,0,43.38,0,82.19c0,24.35,0,39.57,6.09,39.57
			c2.28,0,4.57-1.52,7.61-4.57c18.26-21.31,44.9-35.01,74.58-35.01c54.03,0,98.17,44.14,98.17,98.17s-44.14,98.17-98.17,98.17
			c-29.68,0-56.32-12.94-74.58-34.25c-2.28-2.28-4.57-3.04-6.09-3.04c-8.37,0-8.37,23.59-8.37,37.29c0,54.03,0,98.17,0,114.92
			c0,49.47-53.27,98.17-105.78,98.17c-16.74,0-66.21,0-127.09,0l0,0c-32.72,0-50.99,0-43.38,12.18
			c32.72,18.26,54.79,48.71,54.79,83.71c0,55.55-55.55,100.46-123.29,100.46c-68.49,0-123.29-44.9-123.29-100.46
			c0-32.72,19.79-62.4,50.23-80.67c9.89-15.22-23.59-15.22-41.1-15.22l0,0c-59.36,0-108.07,0-124.05,0
			c-53.27,0-105.78-37.29-105.78-98.17s0-394.21,0-394.21c0-49.47,53.27-98.17,105.78-98.17
			C409.07,174.66,778.93,174.66,832.97,174.66 M832.97,151.83H355.8c-66.21,0-128.61,58.6-128.61,121v394.21
			c0,76.1,65.45,121,128.61,121h101.22h19.03c-18.26,20.55-28.16,46.42-28.16,72.3c0,67.73,65.45,123.29,146.12,123.29
			s146.12-55.55,146.12-123.29c0-26.64-9.89-51.75-28.16-72.3h16.74l0,0h104.26c66.21,0,128.61-58.6,128.61-121V555.17
			c19.79,12.94,42.62,19.79,66.21,19.79c66.97,0,121-54.79,121-121c0-66.97-54.79-121-121-121c-23.59,0-47.18,6.85-66.21,19.79
			v-79.15C962.34,211.19,899.94,151.83,832.97,151.83L832.97,151.83z"/>
	</g>
	<g>
		<path class="st15" d="M234.04,241.63c0-49.47,53.27-98.17,105.78-98.17s423.13,0,477.16,0s105.78,49.47,105.78,98.17
			s0,344.75,0,394.21s-53.27,98.17-105.78,98.17s-424.65,0-477.16,0s-105.78-37.29-105.78-98.93S234.04,241.63,234.04,241.63z"/>
		<g>
			
				<ellipse transform="matrix(0.7071 -0.7071 0.7071 0.7071 -1.8208 839.5936)" class="st15" cx="1012.57" cy="421.99" rx="98.17" ry="98.17"/>
			<path class="st15" d="M923.53,323.06c0,32.72,0,49.47,16.74,32.72v131.66c-16.74-16.74-16.74,16.74-16.74,32.72h-16.74V323.06
				H923.53z"/>
		</g>
		<g>
			<ellipse class="st15" cx="578.78" cy="829.14" rx="123.29" ry="100.46"/>
			<path class="st15" d="M690.65,734.02c-38.05,0-56.32,0-38.05,19.03H501.92c19.03-19.03-19.03-19.03-38.05-19.03v-19.03h226.79
				V734.02z"/>
		</g>
	</g>
	<g id="Cake_2_">
		<g>
			<path class="st2" d="M391.57,688.35c-19.79-12.18-97.41-66.21-97.41-153.73V184.55l299.08-4.57l235.92,4.57v342.46L391.57,688.35
				z"/>
			<path class="st0" d="M593.24,190.64l224.5,4.57v323.44L393.09,675.42c-23.59-15.22-87.52-64.69-87.52-141.55V195.21
				L593.24,190.64 M593.24,167.81l-310.5,4.57v361.49c0,108.07,108.07,166.66,108.07,166.66l449.77-166.66V173.14L593.24,167.81
				L593.24,167.81z"/>
		</g>
		<g>
			<path class="st3" d="M392.33,402.97c-19.03-11.42-98.17-66.21-98.17-154.49v-76.1c0-87.52,61.64-133.18,78.39-144.6
				l456.62,152.21v92.85L392.33,402.97z"/>
			<path class="st0" d="M374.07,41.48l443.68,148.4v16.74v59.36L393.85,390.79c-22.83-15.22-88.28-64.69-88.28-141.55v-76.1
				C305.57,97.8,354.28,55.18,374.07,41.48 M371.02,16.37c0,0-88.28,48.71-88.28,156.77c0,7.61,0,28.16,0,76.1
				c0,108.07,108.07,166.66,108.07,166.66l449.77-133.18v-76.1v-33.49L371.02,16.37L371.02,16.37z"/>
		</g>
		<g>
			<path class="st4" d="M305.57,165.53c0,7.61-0.76,46.42,0,94.37c3.04,81.43,88.28,130.9,88.28,130.9l423.89-121.76v-79.91
				l-427.7,114.15C390.81,303.27,305.57,273.59,305.57,165.53z"/>
		</g>
		<polygon class="st0" points="377.11,406.77 386.24,567.35 404.51,411.34 		"/>
		<polygon class="st0" points="377.87,662.48 385.48,608.45 393.85,675.42 		"/>
	</g>
	<g id="Monkey_Wrench_2_">
		<polygon id="Spanner_Shadow_2_" class="st0" points="565.08,427.18 565.08,728.55 689.89,686.69 689.89,408.92 		"/>
		<path class="st0" d="M565.85,728.55l146.88,57.08c0,0,60.12,28.92,106.54,30.44s47.94-43.38,47.94-43.38l-164.38-95.13
			L565.85,728.55z"/>
		<path class="st0" d="M819.27,816.07c-14.46,0-31.2-3.04-44.9-8.37c-16.74-6.85-28.92-16.74-35.01-28.16
			c-76.86-155.25-205.48-416.28-207-420.09c-3.04-8.37-9.13-19.03-12.18-23.59c-7.61-3.81-25.87-13.7-45.66-23.59
			c-52.51-28.92-55.55-34.25-57.84-38.81l-15.98-31.96v-17.5v-15.22l15.22-2.28h1.52l-9.13-53.27v-39.57l0,0
			c-0.76-12.94,9.13-15.22,11.42-15.22c3.81-0.76,22.83-3.04,23.59-3.04l9.13-0.76l49.47,100.46l39.57-5.33l-27.4-68.49l-0.76-36.53
			l43.38-5.33c0.76,0,1.52,0,2.28,0c6.09,0,11.42,3.04,14.46,6.09l111.87,88.28l0.76,0.76c6.85,6.85,12.18,18.26,12.94,20.55
			l18.26,38.05v28.92l-3.04,3.81c-1.52,1.52-30.44,31.96-52.51,51.75c42.62,82.95,211.57,411.72,213.09,415.52l0,0
			c1.52,3.81,3.04,7.61,3.81,11.42l0.76,0.76v28.92v0.76c-1.52,9.89-6.85,19.03-14.46,25.87c-8.37,7.61-19.79,12.18-32.72,14.46
			C827.64,816.07,823.83,816.07,819.27,816.07z"/>
		<path class="st5" d="M705.11,233.12v22.83c0,0-51.75,54.79-68.49,65.45c-16.74,9.89-7.61-20.55-7.61-20.55L705.11,233.12z"/>
		<path class="st6" d="M867.21,772.69c-2.28,13.7-13.7,26.64-37.29,30.44c-25.11,3.81-68.49-6.85-79.15-29.68
			c0,0-205.48-415.52-207-419.33c-5.33-12.94-15.22-28.92-15.22-28.92s-95.13-47.94-100.46-58.6l-14.46-28.92v-18.26L576.5,290.2
			l290.71,458.14V772.69z"/>
		<polygon class="st5" points="526.27,95.37 526.27,118.21 569.65,227.03 576.5,196.59 		"/>
		<polygon class="st5" points="420.49,112.88 421.25,151.69 438.75,251.39 444.84,251.39 443.32,215.62 		"/>
		<path class="st7" d="M535.4,312.27c0,0-101.98-52.51-107.3-63.17l-14.46-28.92l162.86-22.83L527.03,95.37L559,90.81
			c3.81-0.76,6.85,3.04,6.85,3.04l111.87,88.28c6.09,6.09,10.65,17.5,10.65,17.5s13.7,27.4,16.74,34.25
			c3.04,6.09-63.17,63.93-63.17,63.93s-2.28,2.28,0,6.09c1.52,3.81,222.98,434.55,222.98,434.55
			c11.42,22.83-10.65,44.14-34.25,47.94c-25.11,3.81-64.69-9.13-76.1-31.96c0,0-210.04-431.5-211.57-434.55
			C540.73,315.31,535.4,312.27,535.4,312.27z"/>
		<path class="st7" d="M494.31,208.01l-49.47-100.46c0,0-19.79,2.28-23.59,3.04c-3.81,0.76,22.07,105.02,22.07,105.02L494.31,208.01
			z"/>
		<polygon class="st0" points="590.96,224.75 609.99,260.52 523.23,271.93 507.25,236.16 		"/>
		<path class="st8" d="M517.9,242.25l8.37-1.52c0,0,7.61,1.52,12.18,8.37c4.57,6.85,3.04,14.46,2.28,16.74l-8.37,1.52
			c1.52-3.81,2.28-11.42-1.52-16.74C527.03,246.06,517.9,242.25,517.9,242.25z"/>
		<path class="st8" d="M539.97,239.21l8.37-1.52c0,0,7.61,1.52,12.18,8.37c4.57,6.85,3.04,14.46,2.28,16.74l-8.37,1.52
			c1.52-3.81,2.28-11.42-1.52-16.74C549.86,243.01,539.97,239.21,539.97,239.21z"/>
		<path class="st8" d="M562.04,236.16l8.37-1.52c0,0,7.61,1.52,12.18,8.37c4.57,6.85,3.04,14.46,2.28,16.74l-8.37,1.52
			c1.52-3.81,2.28-11.42-1.52-16.74C571.93,239.97,562.04,236.16,562.04,236.16z"/>
	</g>
	<g>
		<path class="st9" d="M904.03,713.69l-631.98,0c-24.78,0-44.86-20.08-44.86-44.86v-84.09c0-24.78,20.08-44.86,44.86-44.86h631.98
			c24.78,0,44.86,20.08,44.86,44.86v84.09C948.89,693.61,928.81,713.69,904.03,713.69z"/>
		<g>
			<text transform="matrix(1 0 0 1 410.8508 689.6528)" class="st4 st10 st13">addin</text>
		</g>
	</g>
</g>
<g>
	<g>
		<path class="st0" d="M1722.21,941.02c-74.58,0-134.7-50.23-134.7-111.87c0-31.96,16.74-61.64,44.9-82.95
			c-5.33-0.76-13.7-0.76-24.35-0.76h-11.42l0,0h-113.39c-57.84,0-117.2-41.1-117.2-109.59V241.63c0-55.55,57.84-109.59,117.2-109.59
			h477.16c60.12,0,117.2,53.27,117.2,109.59v82.19c0,6.85,0,14.46,0,20.55c20.55-20.55,48.71-31.96,77.62-31.96
			c60.88,0,109.59,49.47,109.59,109.59c0,60.12-49.47,109.59-109.59,109.59c-28.92,0-56.32-11.42-76.86-31.96
			c-0.76,4.57-0.76,11.42-0.76,20.55v114.92c0,55.55-57.84,109.59-117.2,109.59H1845.5h-11.42c-7.61,0-15.98,0-22.83,0
			c28.92,21.31,45.66,50.99,45.66,83.71C1856.91,890.79,1796.79,941.02,1722.21,941.02z"/>
		<path class="st0" d="M1960.41,142.7c54.79,0,105.78,49.47,105.78,98.17c0,12.94,0,43.38,0,82.19c0,24.35,0,39.57,6.09,39.57
			c2.28,0,4.57-1.52,7.61-4.57c18.26-21.31,44.9-35.01,74.58-35.01c54.03,0,98.17,44.14,98.17,98.17s-44.14,98.17-98.17,98.17
			c-29.68,0-56.32-12.94-74.58-34.25c-2.28-2.28-4.57-3.04-6.09-3.04c-8.37,0-8.37,23.59-8.37,37.29c0,54.03,0,98.17,0,114.92
			c0,49.47-53.27,98.17-105.78,98.17c-16.74,0-66.21,0-127.09,0l0,0c-32.72,0-50.99,0-43.38,12.18
			c32.72,18.26,54.79,48.71,54.79,83.71c0,55.55-55.55,100.46-123.29,100.46c-68.49,0-123.29-44.9-123.29-100.46
			c0-32.72,19.79-62.4,50.23-80.67c9.89-15.22-23.59-15.22-41.1-15.22l0,0c-59.36,0-108.07,0-124.05,0
			c-53.27,0-105.78-37.29-105.78-98.17s0-394.21,0-394.21c0-49.47,53.27-98.17,105.78-98.17S1906.38,142.7,1960.41,142.7
			 M1960.41,119.87h-477.16c-66.21,0-128.61,58.6-128.61,121v394.21c0,76.1,65.45,121,128.61,121h101.22h19.03
			c-18.26,20.55-28.16,46.42-28.16,72.3c0,67.73,65.45,123.29,146.12,123.29c80.67,0,146.12-55.55,146.12-123.29
			c0-26.64-9.89-51.75-28.16-72.3h17.5l0,0h104.26c66.21,0,128.61-58.6,128.61-121V523.21c19.79,12.94,42.62,19.79,66.21,19.79
			c66.97,0,121-54.79,121-121s-54.79-121-121-121c-23.59,0-47.18,6.85-66.21,19.79v-79.15
			C2089.79,179.23,2027.38,119.87,1960.41,119.87L1960.41,119.87z"/>
	</g>
	<g>
		<path class="st0" d="M1738.19,972.98c-74.58,0-134.7-50.23-134.7-111.87c0-31.96,16.74-61.64,44.9-82.95
			c-5.33-0.76-13.7-0.76-24.35-0.76h-11.42l0,0h-113.39c-57.84,0-117.2-41.1-117.2-109.59V273.59c0-55.55,57.84-109.59,117.2-109.59
			h477.16c60.12,0,117.2,53.27,117.2,109.59v82.19c0,6.85,0,14.46,0,20.55c20.55-20.55,48.71-31.96,77.62-31.96
			c60.88,0,109.59,49.47,109.59,109.59c0,60.88-49.47,109.59-109.59,109.59c-28.92,0-56.32-11.42-76.86-31.96
			c-0.76,4.57-0.76,11.42-0.76,20.55v114.92c0,55.55-57.84,109.59-117.2,109.59h-114.92h-11.42c-7.61,0-15.98,0-22.83,0
			c28.92,21.31,45.66,50.99,45.66,83.71C1872.9,922.75,1812.77,972.98,1738.19,972.98z"/>
		<path class="st0" d="M1976.4,174.66c54.79,0,105.78,49.47,105.78,98.17c0,12.94,0,43.38,0,82.19c0,24.35,0,39.57,6.09,39.57
			c2.28,0,4.57-1.52,7.61-4.57c18.26-21.31,44.9-35.01,74.58-35.01c54.03,0,98.17,44.14,98.17,98.17s-44.14,98.17-98.17,98.17
			c-29.68,0-56.32-12.94-74.58-34.25c-2.28-2.28-4.57-3.04-6.09-3.04c-8.37,0-8.37,23.59-8.37,37.29c0,54.03,0,98.17,0,114.92
			c0,49.47-53.27,98.17-105.78,98.17c-16.74,0-66.21,0-127.09,0l0,0c-32.72,0-50.99,0-43.38,12.18
			c32.72,18.26,54.79,48.71,54.79,83.71c0,55.55-55.56,100.46-123.29,100.46c-68.49,0-123.29-44.9-123.29-100.46
			c0-32.72,19.79-62.4,50.23-80.67c9.89-15.22-23.59-15.22-41.1-15.22l0,0c-59.36,0-108.07,0-124.05,0
			c-53.27,0-105.78-37.29-105.78-98.17s0-394.21,0-394.21c0-49.47,53.27-98.17,105.78-98.17
			C1552.5,174.66,1922.36,174.66,1976.4,174.66 M1976.4,151.83h-477.16c-66.21,0-128.61,58.6-128.61,121v394.21
			c0,76.1,65.45,121,128.61,121h101.22h19.03c-18.26,20.55-28.16,46.42-28.16,72.3c0,67.73,65.45,123.29,146.12,123.29
			c80.67,0,146.12-55.55,146.12-123.29c0-26.64-9.89-51.75-28.16-72.3h16.74l0,0h104.26c66.21,0,128.61-58.6,128.61-121V555.17
			c19.79,12.94,42.62,19.79,66.21,19.79c66.97,0,121-54.79,121-121c0-66.97-54.79-121-121-121c-23.59,0-47.18,6.85-66.21,19.79
			v-79.15C2105.77,211.19,2043.37,151.83,1976.4,151.83L1976.4,151.83z"/>
	</g>
	<g>
		<path class="st16" d="M1377.47,241.63c0-49.47,53.27-98.17,105.78-98.17s423.13,0,477.16,0c54.03,0,105.78,49.47,105.78,98.17
			s0,344.75,0,394.21s-53.27,98.17-105.78,98.17s-424.65,0-477.16,0s-105.78-37.29-105.78-98.93S1377.47,241.63,1377.47,241.63z"/>
		<g>
			
				<ellipse transform="matrix(0.7071 -0.7071 0.7071 0.7071 333.0817 1648.1198)" class="st16" cx="2156" cy="421.99" rx="98.17" ry="98.17"/>
			<path class="st16" d="M2066.96,323.06c0,32.72,0,49.47,16.74,32.72v131.66c-16.74-16.74-16.74,16.74-16.74,32.72h-16.74V323.06
				H2066.96z"/>
		</g>
		<g>
			<ellipse class="st16" cx="1722.21" cy="829.14" rx="123.29" ry="100.46"/>
			<path class="st16" d="M1834.08,734.02c-38.05,0-56.32,0-38.05,19.03h-150.68c19.03-19.03-19.03-19.03-38.05-19.03v-19.03h226.79
				V734.02z"/>
		</g>
	</g>
	<g id="Cake_1_">
		<g>
			<path class="st2" d="M1535,688.35c-19.79-12.18-97.41-66.21-97.41-153.73V184.55l299.08-4.57l235.92,4.57v342.46L1535,688.35z"/>
			<path class="st0" d="M1736.67,190.64l224.5,4.57v323.44l-424.65,156.77c-23.59-15.22-87.52-64.69-87.52-141.55V195.21
				L1736.67,190.64 M1736.67,167.81l-310.5,4.57v361.49c0,108.07,108.07,166.66,108.07,166.66l449.77-166.66V173.14L1736.67,167.81
				L1736.67,167.81z"/>
		</g>
		<g>
			<path class="st3" d="M1535.76,402.97c-19.03-11.42-98.17-66.21-98.17-154.49v-76.1c0-87.52,61.64-133.18,78.39-144.6
				l456.62,152.21v92.85L1535.76,402.97z"/>
			<path class="st0" d="M1517.5,41.48l443.68,148.4v16.74v59.36l-423.89,124.81c-22.83-15.22-88.28-64.69-88.28-141.55v-76.1
				C1449,97.8,1497.71,55.18,1517.5,41.48 M1514.45,16.37c0,0-88.28,48.71-88.28,156.77c0,7.61,0,28.16,0,76.1
				c0,108.07,108.07,166.66,108.07,166.66l449.77-133.18v-76.1v-33.49L1514.45,16.37L1514.45,16.37z"/>
		</g>
		<g>
			<path class="st4" d="M1449,165.53c0,7.61-0.76,46.42,0,94.37c3.04,81.43,88.28,130.9,88.28,130.9l423.89-121.76v-79.91
				l-427.7,114.15C1534.24,303.27,1449,273.59,1449,165.53z"/>
		</g>
		<polygon class="st0" points="1520.54,406.77 1529.67,567.35 1547.94,411.34 		"/>
		<polygon class="st0" points="1521.3,662.48 1528.91,608.45 1537.28,675.42 		"/>
	</g>
	<g id="Monkey_Wrench_1_">
		<polygon id="Spanner_Shadow_1_" class="st0" points="1708.51,427.18 1708.51,728.55 1833.32,686.69 1833.32,408.92 		"/>
		<path class="st0" d="M1709.27,728.55l146.88,57.08c0,0,60.12,28.92,106.54,30.44c46.42,1.52,47.94-43.38,47.94-43.38
			l-164.38-95.13L1709.27,728.55z"/>
		<path class="st0" d="M1962.7,816.07c-14.46,0-31.2-3.04-44.9-8.37c-16.74-6.85-28.92-16.74-35.01-28.16
			c-76.86-155.25-205.48-416.28-207-420.09c-3.04-8.37-9.13-19.03-12.18-23.59c-7.61-3.81-25.87-13.7-45.66-23.59
			c-52.51-28.92-55.55-34.25-57.84-38.81l-15.98-31.96v-17.5v-15.22l15.22-2.28h1.52l-9.13-53.27v-39.57l0,0
			c-0.76-12.94,9.13-15.22,11.42-15.22c3.81-0.76,22.83-3.04,23.59-3.04l9.13-0.76l49.47,100.46l39.57-5.33l-27.4-68.49l-0.76-36.53
			l43.38-5.33c0.76,0,1.52,0,2.28,0c6.09,0,11.42,3.04,14.46,6.09l111.87,88.28l0.76,0.76c6.85,6.85,12.18,18.26,12.94,20.55
			l18.26,38.05v28.92l-3.04,3.81c-1.52,1.52-30.44,31.96-52.51,51.75c42.62,82.95,211.57,411.72,213.09,415.52l0,0
			c1.52,3.81,3.04,7.61,3.81,11.42l0.76,0.76v28.92v0.76c-1.52,9.89-6.85,19.03-14.46,25.87c-8.37,7.61-19.79,12.18-32.72,14.46
			C1971.07,816.07,1967.26,816.07,1962.7,816.07z"/>
		<path class="st5" d="M1848.54,233.12v22.83c0,0-51.75,54.79-68.49,65.45c-16.74,9.89-7.61-20.55-7.61-20.55L1848.54,233.12z"/>
		<path class="st6" d="M2010.64,772.69c-2.28,13.7-13.7,26.64-37.29,30.44c-25.11,3.81-68.49-6.85-79.15-29.68
			c0,0-205.48-415.52-207-419.33c-5.33-12.94-15.22-28.92-15.22-28.92s-95.13-47.94-100.46-58.6l-14.46-28.92v-18.26l162.86,70.78
			l290.71,458.14V772.69z"/>
		<polygon class="st5" points="1669.7,95.37 1669.7,118.21 1713.08,227.03 1719.93,196.59 		"/>
		<polygon class="st5" points="1563.92,112.88 1564.68,151.69 1582.18,251.39 1588.27,251.39 1586.75,215.62 		"/>
		<path class="st7" d="M1678.83,312.27c0,0-101.98-52.51-107.3-63.17l-14.46-28.92l162.86-22.83l-49.47-101.98l31.96-4.57
			c3.81-0.76,6.85,3.04,6.85,3.04l111.87,88.28c6.09,6.09,10.65,17.5,10.65,17.5s13.7,27.4,16.74,34.25
			c3.04,6.09-63.17,63.93-63.17,63.93s-2.28,2.28,0,6.09c1.52,3.81,222.98,434.55,222.98,434.55
			c11.42,22.83-10.65,44.14-34.25,47.94c-25.11,3.81-64.69-9.13-76.1-31.96c0,0-210.04-431.5-211.57-434.55
			C1684.16,315.31,1678.83,312.27,1678.83,312.27z"/>
		<path class="st7" d="M1637.74,208.01l-49.47-100.46c0,0-19.79,2.28-23.59,3.04c-3.81,0.76,22.07,105.02,22.07,105.02
			L1637.74,208.01z"/>
		<polygon class="st0" points="1734.39,224.75 1753.41,260.52 1666.66,271.93 1650.68,236.16 		"/>
		<path class="st8" d="M1661.33,242.25l8.37-1.52c0,0,7.61,1.52,12.18,8.37c4.57,6.85,3.04,14.46,2.28,16.74l-8.37,1.52
			c1.52-3.81,2.28-11.42-1.52-16.74C1670.46,246.06,1661.33,242.25,1661.33,242.25z"/>
		<path class="st8" d="M1683.4,239.21l8.37-1.52c0,0,7.61,1.52,12.18,8.37s3.04,14.46,2.28,16.74l-8.37,1.52
			c1.52-3.81,2.28-11.42-1.52-16.74C1693.29,243.01,1683.4,239.21,1683.4,239.21z"/>
		<path class="st8" d="M1705.47,236.16l8.37-1.52c0,0,7.61,1.52,12.18,8.37c4.57,6.85,3.04,14.46,2.28,16.74l-8.37,1.52
			c1.52-3.81,2.28-11.42-1.52-16.74C1715.36,239.97,1705.47,236.16,1705.47,236.16z"/>
	</g>
	<g>
		<path class="st9" d="M2052.73,713.69l-644.29,0c-21.38,0-38.71-17.33-38.71-38.71v-96.4c0-21.38,17.33-38.71,38.71-38.71h644.29
			c21.38,0,38.71,17.33,38.71,38.71v96.4C2091.43,696.36,2074.1,713.69,2052.73,713.69z"/>
		<g>
			<text transform="matrix(1 0 0 1 1493.3451 689.6528)" class="st4 st10 st13">module</text>
		</g>
	</g>
</g>
</svg>
